/* XPM */
static char *_1d90554e4ec4915f1d0897e31118975PbYGq2cOjrLfVBmS[] = {
/* columns rows colors chars-per-pixel */
"32 32 65 1 ",
"  c #46532C",
". c #47582F",
"X c #4B5B2F",
"o c #475433",
"O c #495633",
"+ c #4C5A34",
"@ c #4D5B3A",
"# c #505C36",
"$ c #515E3C",
"% c #53613A",
"& c #515E40",
"* c #566440",
"= c #5A6844",
"- c #879E69",
"; c #91A66E",
": c #93AA6E",
"> c #8DA470",
", c #91A771",
"< c #94AB74",
"1 c #98AE75",
"2 c #95AC79",
"3 c #98AF7A",
"4 c #98B076",
"5 c #96B17E",
"6 c #9CB37C",
"7 c #A1B67E",
"8 c #A0B87F",
"9 c #99AE83",
"0 c #9DB482",
"q c #9FB989",
"w c #A1B784",
"e c #A2B984",
"r c #A3B68A",
"t c #A5BC8B",
"y c #A9BE8C",
"u c #A5BF90",
"i c #A8BF90",
"p c #A7C18E",
"a c #ABC28E",
"s c #B0C28F",
"d c #A7C192",
"f c #ACC393",
"g c #AEC499",
"h c #AEC899",
"j c #B1C695",
"k c #B3CA95",
"l c #B8CA97",
"z c #B1C799",
"x c #B4CB9B",
"c c #B9CD9C",
"v c #B7D29F",
"b c #BBD19E",
"n c #B4CDA0",
"m c #B9CEA3",
"M c #BACFA8",
"N c #B6D0A1",
"B c #BCD2A2",
"V c #BDD2AB",
"C c #C2D4A3",
"Z c #C4D8A6",
"A c #C4D7AA",
"S c #C3D9AA",
"D c #C9DBA9",
"F c #C2D7B0",
"G c #C6DBB2",
/* pixels */
"O%o@$OO@o$++@O+O# #O+# #$$O$#O+ ",
"%yCAmCCBrcxcABCCyelCZkelmAmml7;1",
"OsejxBxxjl0<yyrjdysjfatkjrrlbla7",
"%Ctzzxfvxmi0yfrkzxxfhhxhiztyle1a",
" kwdiffadjgyfa0fqtfhffftdcxjby6x",
"%cgnmgvkkpatttqttdffppp4gtadfadz",
".svxh2tpaajjaapjaaaspap42fvhmf0z",
"Xlh9hhN<fppafdpaa::7864aafxxxMhz",
"Xab40e6:::46e00q466w4e566e662j6a",
"+4a50<4e::660066:,411e6ee6666kaC",
".;kkk6:88666660e46663660e66e56-<",
".:vkcae66668e6<,<<511w000epkaaek",
"+<y92<,,0ptflka6e464ekxxcjfketab",
".6xxd948q606pskskee6fca00wer0etf",
"@akjt3wskxdr6608660ekxcgfkcxxka3",
".vvxxjxlcNBa6<<<22020ejBcxxjkmx3",
"OOO+OO#+&@OO@$@oO%+@$@O@o@$O+O..",
"DCCczlcBMCCCCmmc=rmAmMBBCCCcACCC",
"ffxxzznxzcmcczjxOyccfxznfiirfjlj",
"tfxNxcNhczzzzitd$czzxnznnnnzxxxj",
"dgdffdddiiiigjtk+Azjjfufdghddddf",
"ddtttydfzizixxxVOAffifhhhxxjqtpd",
"yffpaatatizidtrxOB0diifutdfaeeaa",
"3766ew600rzigdtS@vwxxhnhcxlz661:",
"wwwr0wwrxke4862M$zwxv466e668e661",
"w0660eaxxxy486wGOa260400:<4646ee",
"w666666e0ew4600x@cp800t566684464",
"16666866066eakgS+lkkkkje68666684",
"6w6318876eegitwcO77ee0t03w2,<<5,",
">233qfkkscxvr90AX:1766q0wjzxkkvc",
"xxxnzftw8ffMngwb#::<,0099gznnnzz",
"ABBSBi096rrMFF07X:1:1vSBMGVMVVVV"
};
