/* XPM */
static char *be1d7145652942bad7c776d14fa98e4aqrSEtWqVbqImhXWC[] = {
/* columns rows colors chars-per-pixel */
"32 32 135 2 ",
"   c #352317",
".  c #382517",
"X  c #362519",
"o  c #39271A",
"O  c #3C2A1D",
"+  c #3E2C20",
"@  c #412D1E",
"#  c #422E20",
"$  c #453122",
"%  c #4F3726",
"&  c #4F3828",
"*  c #543A27",
"=  c #593C27",
"-  c #553C2A",
";  c #5A3E2B",
":  c #5C412E",
">  c #5D4331",
",  c #61432E",
"<  c #624331",
"1  c #624330",
"2  c #604230",
"3  c #604430",
"4  c #634531",
"5  c #604432",
"6  c #624733",
"7  c #654533",
"8  c #624632",
"9  c #674933",
"0  c #664A33",
"q  c #664A35",
"w  c #664A36",
"e  c #664B37",
"r  c #654935",
"t  c #694933",
"y  c #684835",
"u  c #694935",
"i  c #694A34",
"p  c #684A35",
"a  c #694B35",
"s  c #684B36",
"d  c #6C4B36",
"f  c #6A4D34",
"g  c #6B4C35",
"h  c #6A4C36",
"j  c #6C4C35",
"k  c #6E4D35",
"l  c #6C4F35",
"z  c #6D4F35",
"x  c #6D4C36",
"c  c #6E4D36",
"v  c #6F4D36",
"b  c #6B4C36",
"n  c #694A38",
"m  c #694B38",
"M  c #6C4B39",
"N  c #684C38",
"B  c #694C38",
"V  c #6B4C38",
"C  c #6A4D38",
"Z  c #6B4E39",
"A  c #6B4F39",
"S  c #6B4E3B",
"D  c #6D4D39",
"F  c #6F4D39",
"G  c #6D4F38",
"H  c #6E4E39",
"J  c #6C4E3A",
"K  c #6C4F3A",
"L  c #6F4F3D",
"P  c #6D4E39",
"I  c #704E36",
"U  c #704E37",
"Y  c #724F37",
"T  c #704E36",
"R  c #704F39",
"E  c #704D3A",
"W  c #704F39",
"Q  c #6F5137",
"!  c #6D5039",
"~  c #6F5138",
"^  c #6F5039",
"/  c #6C503A",
"(  c #6D503A",
")  c #6C503B",
"_  c #6C513B",
"`  c #6D513B",
"'  c #6F503A",
"]  c #6F513B",
"[  c #6F503C",
"{  c #6F513B",
"}  c #705136",
"|  c #715237",
" . c #735037",
".. c #705038",
"X. c #725039",
"o. c #735039",
"O. c #715239",
"+. c #725338",
"@. c #71513A",
"#. c #70523B",
"$. c #71523B",
"%. c #72523A",
"&. c #72523B",
"*. c #73533B",
"=. c #74523A",
"-. c #74533B",
";. c #75533B",
":. c #735438",
">. c #71523C",
",. c #71523D",
"<. c #70533D",
"1. c #73533C",
"2. c #73533D",
"3. c #75533C",
"4. c #77533F",
"5. c #73543C",
"6. c #73543D",
"7. c #71543E",
"8. c #72543E",
"9. c #74543D",
"0. c #75543D",
"q. c #75553D",
"w. c #74543E",
"e. c #75553E",
"r. c #75553F",
"t. c #77553F",
"y. c #72523B",
"u. c #78573F",
"i. c #7B573F",
"p. c #78553D",
"a. c #755641",
"s. c #7A5641",
"d. c #745843",
"f. c #755945",
"g. c #7B5A43",
/* pixels */
"o O / ` ` ` O O O O O O @  .Q Q / : : - # o O S D > = : - - > o ",
"O O D 7.7.s O O # O ; n ` 7.f : : - - o o O O # >.s @ & # O + O ",
"$ u s.D D 7 * - - - : : ;.X.: = - + + o # o # N e.D $ o O X + + ",
"4.M E 1 - - ; , # & : - U D : : + o o $ r >.D 7.X.e.0 @ o O O X ",
"y 7 - ; 7 ; ; @ @ @ , : - # @ X o O O - >.e.D ` Q : u./ s d.f./ ",
"@ - < ; = * o @ . O 0 +.y # X + O : = s 7.3.r 4 * # : + O A e O ",
"o o # * O + # y Q  .X.a.E M # a.X.D = 4 D D 4 ; +   O O X + O O ",
"O o O O O S > E | Q X.n < - + - e.e.D : 1 = : = O O : : : O o + ",
"3.k X.>.e.s 6 / f  .X.- ; + + + ; - > ; - O O + @ } >.U ; U ;.;.",
";.x X.7.:.: * : , * : * O   o + # O * ; : + X o t i.e.k = , X.k ",
"u.X.X.` : O O # : - , ; O # N a.n + + O + X + O :.;. . .: = U , ",
"= = = - : O . O : ; - #   # ` ` 3.E a.N + X + O :.;.X.U : = ; - ",
"* : : = * O O O @ O O O $ 4 7.X.D X.N E ; - a.` ` X.` N 4 : - : ",
": = * @ @ @ 0 ` o O o s D u.e. .;.k 4 = ; # >.S X.>.N 4 - - @ * ",
". @ . @ f s 6 : + e + N r - = * ; ; * $ - O >.D ` >.4 * O O o @ ",
":.Q :.` X.> - O o a.o + - = ; , = ; = O @ o >.a.; : * @ O $ D >.",
"n a.>.; > = o S E 3.M # X X O O @ o O O @ O * : : - O # O O : = ",
"> ; ; - @ O # ` >.3.>.6 # O + O O O O @ r X.3.3.; = O ; - O S > ",
"@ O . # O O u g.;.M a.> - ; r + O # y >.X.D u. .S > * > % $ D D ",
"o O O @ o @ r D U E E r ; < - O # r g.>.;.X.U  .D > ; > @ O D a.",
"@ >.>.>.>.S s.a.;.s.D > ; - + + n D >.E E X.i.I ; = - - o o , X.",
"  E >.S >.>.a.S k D 8 % > - + - 4 D 3.>.X.U I , ; - O O @ O O o ",
"# y s.a.; - ; > = : = - $ $ + > - , E u.X., = = ; + O # 6 D # o ",
"; # D S O O O ; ; : * @ X o o o : - = = ; = = : o O # u g.>.u : ",
"; O +.N $ o O O o + + + O o $ - - o + N ; - ; O # O # D >.U =.I ",
": @ - 4 - Q @ o O O o o + + & : : + X $ + + + O   # 6 >.E u. ., ",
"- @ - : : s f  .` +.X.X.] ` 0 = & $ X o X + + O # n >.X.E Y U = ",
"4 o O - : 4 7.N  .X.Q ` ` f * @ + s $ o + + o O N a.a.D 3.3.; = ",
": O X : @ - : : s Q 7.:.+.6 * # O Q / Q N - O O e.X.D X.s.X.: : ",
"X + + > $ o o : : e ] 7.s = O o @ Q d.Q >.4 @ N ;.u.U D D : > - ",
"+ O X > > O o O : > > : - $ O O s e.u./ : - o 4 U U D 4 - ; & + ",
"X O + N $ + O O O + O O O o O o  .:.f : : ; O = = = ; ; ; > > o "
};
