/* XPM */
static char *_c6226276c9847fe8a84db5b8b148b2c4h91KyzCZ5gsfq6W[] = {
/* columns rows colors chars-per-pixel */
"32 32 210 2 ",
"   c #2A2C1C",
".  c #2E311C",
"X  c #1D2E2D",
"o  c #1F2C26",
"O  c #0C243E",
"+  c #1D2C34",
"@  c #1C273C",
"#  c #152D3C",
"$  c #1E2D3B",
"%  c #162837",
"&  c #1E3134",
"*  c #1C313C",
"=  c #252C24",
"-  c #232E2D",
";  c #2B2D2D",
":  c #2F2E22",
">  c #29312D",
",  c #30322E",
"<  c #232D34",
"1  c #222D3B",
"2  c #2B2E3D",
"3  c #233134",
"4  c #293134",
"5  c #263834",
"6  c #24333B",
"7  c #29343B",
"8  c #313135",
"9  c #0B1D46",
"0  c #0C1F49",
"q  c #101C46",
"w  c #0C2446",
"e  c #0C2B43",
"r  c #05244C",
"t  c #0C244B",
"y  c #072A4C",
"u  c #0C2A4D",
"i  c #072545",
"p  c #142444",
"a  c #142847",
"s  c #1B2941",
"d  c #12254C",
"f  c #122B4D",
"g  c #1C3243",
"h  c #072652",
"j  c #0B2553",
"k  c #0C2A53",
"l  c #07275A",
"z  c #0F2758",
"x  c #062959",
"c  c #0C2A59",
"v  c #032C52",
"b  c #122653",
"n  c #112A53",
"m  c #122A5A",
"M  c #0D3154",
"N  c #103055",
"B  c #14315C",
"V  c #212C42",
"C  c #232A46",
"Z  c #243243",
"A  c #18477B",
"S  c #003F8B",
"D  c #0B3B8C",
"F  c #033D93",
"G  c #0C3E94",
"H  c #0B3D9B",
"J  c #123E94",
"K  c #103F98",
"L  c #0C3EA0",
"P  c #06448D",
"I  c #0C458E",
"U  c #084A8F",
"Y  c #084689",
"T  c #174587",
"R  c #18498D",
"E  c #044296",
"W  c #0B4495",
"Q  c #034994",
"!  c #0C4A93",
"~  c #04449C",
"^  c #0C459B",
"/  c #034C9D",
"(  c #0B4B9C",
")  c #134294",
"_  c #104892",
"`  c #13459C",
"'  c #17459C",
"]  c #05529C",
"[  c #0C509E",
"{  c #0046A3",
"}  c #0E44A3",
"|  c #034BA4",
" . c #0D4AA3",
".. c #1146A3",
"X. c #134BA3",
"o. c #1948A7",
"O. c #144AA9",
"+. c #0352A4",
"@. c #0B52A3",
"#. c #0555AB",
"$. c #0855AF",
"%. c #1152A2",
"&. c #1850AD",
"*. c #144EB3",
"=. c #0D56B1",
"-. c #0651B1",
";. c #165BB4",
":. c #115FBB",
">. c #0C6CB5",
",. c #1B70BC",
"<. c #1B6ECA",
"1. c #1B73CE",
"2. c #1F6FD5",
"3. c #1C7CD7",
"4. c #2476CC",
"5. c #297FCB",
"6. c #3171C9",
"7. c #247AD5",
"8. c #2B7BD3",
"9. c #247CDB",
"0. c #2D7DDC",
"q. c #2275D2",
"w. c #337DD8",
"e. c #1C7CE2",
"r. c #2C7FE5",
"t. c #327EE1",
"y. c #1D82D7",
"u. c #1D82DD",
"i. c #1D8CDC",
"p. c #1E8DD3",
"a. c #2282D4",
"s. c #228AD7",
"d. c #2989D4",
"f. c #2385DB",
"g. c #2B84DC",
"h. c #248CDD",
"j. c #2B8CDD",
"k. c #2E87D2",
"l. c #3483D2",
"z. c #3386DF",
"x. c #2391D6",
"c. c #2592DB",
"v. c #2B92DC",
"b. c #3090DE",
"n. c #1F85E7",
"m. c #1E8EE5",
"M. c #2584E4",
"N. c #2D84E4",
"B. c #268CE4",
"V. c #2B8CE2",
"C. c #2482E9",
"Z. c #248EEA",
"A. c #2B8CEB",
"S. c #2D83EA",
"D. c #3383E3",
"F. c #328CE5",
"G. c #3888E7",
"H. c #3487EA",
"J. c #3986EA",
"K. c #348CEB",
"L. c #2591E2",
"P. c #2C92E5",
"I. c #2E99E5",
"U. c #2392EC",
"Y. c #2C93EA",
"T. c #2398E8",
"R. c #2C9AE9",
"E. c #3294E4",
"W. c #3299E6",
"Q. c #3292EB",
"!. c #339CEE",
"~. c #3A93E9",
"^. c #2B8FF4",
"/. c #2288F4",
"(. c #3489F2",
"). c #318CFE",
"_. c #388BF1",
"`. c #2790FB",
"'. c #2B92F2",
"]. c #3394F0",
"[. c #3C9EF7",
"{. c #3D9BFB",
"}. c #3ABEEF",
"|. c #3EADF7",
" X c #3EA3FD",
".X c #3EBFF9",
"XX c #4AB5EC",
"oX c #55B4EB",
"OX c #44ADFC",
"+X c #4AACFE",
"@X c #48A6FF",
"#X c #52ADFD",
"$X c #4BB5F6",
"%X c #45B4FC",
"&X c #4BB4FC",
"*X c #43BAFC",
"=X c #4CBCFE",
"-X c #47B9F5",
";X c #51B3F4",
":X c #53B6FF",
">X c #53B4FF",
",X c #59B6FF",
"<X c #53BBFE",
"1X c #5CBCFF",
"2X c #5DB3F5",
"3X c #45C1F9",
"4X c #49C3FF",
"5X c #53C1FD",
"6X c #59C3FD",
"7X c #61C3FF",
/* pixels */
"d p * 6 1 @ f j j d u x l j r m t n a p $ 1 Z p c t b h m j h t ",
"* & 3 - 5 + * # 7 = o 3 1 7 + < * * * 6 + 5 X & + > > 3 6 $ 3 < ",
"c z f w t r c x C 4 $ a 0 d d b c r k 9 t i u j g 1 1 f d d j d ",
"E ~ H } X. .t.N.t * k G o.O.L L E ( } X.O.~ D.(.T g m J ) ....H ",
"z.~.9.K.q.#.V.j.f % i W _ P Q [ F.g.G.8.g.#.B.B.R & p I Y W U ( ",
"| <.:.S.A.1.].>Xb * u ) D ;.N.l.0.#.4.$.(.9.M.B.J $ b ^ W ;.,._.",
"d.Q.a.V.V.P.j.<Xd 6 r H %.8.M.] P.a.b.g.~.>XE.$X' & n ^ Q <.>.M.",
"A.B.Z.Z.U.%Xc.<Xt 6 r *.z.(./.g.m.B.B.Z.n.U.h.=X' & j H [ (.a.).",
"].u.B.].Y.&XP.<Xj 3 w ..g.( B.^.A.V.A.<X>XP.h.>XI 3 t  .l.D.B.^.",
"g.Q.A.+Xa.v.v.&Xh 3 u } f.| Y.f.B.P.OXP.B.%Xh.<X) 1 b E P | P.r.",
"i.W.%X6X=Xc.<X$Xt 7 9 } ~.J.V.V.f.B.!.B.j.I.s.<X` 1 n / ] z.h.Z.",
"P.OXI.=Xp.c.%X4Xm 1 0 ../ 0.N.F.Y.>Xg.<Xf.+XE.<X) 6 j Q k.z.p.A.",
"+X[.y.P.P.<X1X&Xj 1 t -.4.].V.M.=XL.&XB.=Xv.%X<XJ < t { Q H.s.F.",
"B.h.&XP.%X&X4X=Xr & u y.>.u.&XY.L.h.R.L.c.=X&X=XW 6 z e.P.C.=XA.",
",X,X1X<X;X1X;X<Xt 5 a g.5.Y.K.S.,X>X>X,X>X>X,X>XA - k V.E.M.P.#X",
"h h h k k y k y C = C [ P  .G ^ W ^ W ! I ! I I C . 1 x r x v k ",
"X 7 + 6 6 < 6 < 4 1 * $ 4 . < * & & 3 6 < < Z < 2 $ g 4   4 6 < ",
"m t b 9 b n d j a w u N s ; V u f w w t t d n d a k v s 4 + n f ",
"J ..G &.W ^ W X.D ( @.6.m Z b W G O.o.` ..^ F X.X.8.z.m 1 f J D ",
"Q E z.P D.Q #.8.$.3.B.F.j $ t %.^ ^ w.K.Q Q F.V.D.U.+Xk + d ..O.",
"@.g.+.g.| f.g.F.#X X|.,Xu 6 d I ( w.[ Q d.V.j.<XB.L.>Xi 3 f ^ ^ ",
"N.0.H.+.9.Q.#XK.F.V.x.1Xi 6 9 ` J.H.N.K.N.Q.&Xh.j.%X7Xi 3 t W  .",
"P.j.Y.3.j.P.&XV.V.%X4X$Xu 6 b ^ | 9.{.@XY.y.R.L.<X%X;Xz 7 t ( S.",
"h.h.=XP.<Xi.L.=X,X5X.X<Xr 1 c ~ h.Y.i.v.%X=X=X=X>XT.oXz - h ( M.",
"d.U.$X+X6X|.6X&X<X%X=XoXO # M k.P.>X1X$X=X&X,X$X*X=X2Xy # y l.`.",
"b l t b w h u k w N r e 1 7 @ b h z t r h t f u u u d @ 1 < d c ",
"1 g 4 , - 3 & 1 7 % $ 1 8 ; 4 1 * 1 6 1 3 = ; 1 < < 7 < ; > 4 + ",
"t B @ - $ n i t w z z m 9 q m h k t z B s 4 Z t d m z t N t t k ",
"/ 8.k 6 f Y F @.! Q Q 8.( @.8.+.W | 9.t.n % f E D  .{ | q.| / F.",
"b.#Xu < e U =.d.#X~.F.A.g.g.h.;Xd.d.!.@XN 1 e E X.7.^.^.Q.V.8.A.",
"4X1Xj < w X.2.W.Y.a.>XV.P.=Xj.j.K.<X4X,Xi 1 O =.N.Q.U.$Xj.>XQ.s.",
"3X>Xr 7 u D.).%X=X<X=X-X*X=X4X$XN.3X}.,Xt Z w r.c.=X-X-XXX<X-X4X"
};
