/* XPM */
static char *c5c1b5c2ae284e6ca803dd4d280e5957eZPc4zJbbEA7WSab[] = {
/* columns rows colors chars-per-pixel */
"32 32 208 2 ",
"   c #2D251D",
".  c #252A1E",
"X  c #2D281A",
"o  c #282519",
"O  c #34281C",
"+  c #2A331D",
"@  c #1E2D2B",
"#  c #1D302D",
"$  c #1E2D33",
"%  c #1D3335",
"&  c #1E333C",
"*  c #1F393D",
"=  c #1F3932",
"-  c #272525",
";  c #2D2423",
":  c #232C24",
">  c #2C2B24",
",  c #242D2C",
"<  c #2C2D2A",
"1  c #332525",
"2  c #332B23",
"3  c #332A2B",
"4  c #38282A",
"5  c #25322C",
"6  c #29312B",
"7  c #242E33",
"8  c #2C2D33",
"9  c #242D3A",
"0  c #2D2F39",
"q  c #362E37",
"w  c #243234",
"e  c #2A3134",
"r  c #24323B",
"t  c #2B333A",
"y  c #233937",
"u  c #5B0704",
"i  c #550D02",
"p  c #5C0D02",
"a  c #5B0D09",
"s  c #540503",
"d  c #4D120B",
"f  c #4C1506",
"g  c #541203",
"h  c #5B1202",
"j  c #54130C",
"k  c #5B120A",
"l  c #51180A",
"z  c #471910",
"x  c #4D1A13",
"c  c #521610",
"v  c #5B1412",
"b  c #531812",
"n  c #6B0400",
"m  c #620B01",
"M  c #6A0D03",
"N  c #630D0B",
"B  c #670905",
"V  c #770D00",
"C  c #7C0B01",
"Z  c #7A0F08",
"A  c #631202",
"S  c #6E1400",
"D  c #62140B",
"F  c #6A1705",
"G  c #751501",
"H  c #7B1401",
"J  c #741901",
"K  c #7C1A01",
"L  c #7A1509",
"P  c #771B09",
"I  c #651314",
"U  c #711910",
"Y  c #6C2000",
"T  c #7C2001",
"R  c #5F1A25",
"E  c #142F40",
"W  c #1A2F44",
"Q  c #183246",
"!  c #233442",
"~  c #850B01",
"^  c #8B0E00",
"/  c #831501",
"(  c #891401",
")  c #821B02",
"_  c #8B1A01",
"`  c #88130A",
"'  c #801809",
"]  c #801609",
"[  c #971300",
"{  c #9A1E00",
"}  c #961E02",
"|  c #A41E00",
" . c #AA1D00",
".. c #AA1F09",
"X. c #862000",
"o. c #8F2100",
"O. c #8C200D",
"+. c #932502",
"@. c #9D2401",
"#. c #9D2B03",
"$. c #9E2708",
"%. c #9C290A",
"&. c #9F3104",
"*. c #94360B",
"=. c #9D2B11",
"-. c #9C3111",
";. c #A42402",
":. c #AB2501",
">. c #A42C02",
",. c #AB2B03",
"<. c #A4250B",
"1. c #A32B0B",
"2. c #AB2C0C",
"3. c #A8260C",
"4. c #B42501",
"5. c #B22B01",
"6. c #B92A00",
"7. c #B3250B",
"8. c #B32E09",
"9. c #A23202",
"0. c #AC3203",
"q. c #A2330B",
"w. c #AC330C",
"e. c #B53204",
"r. c #BA3304",
"t. c #B5330B",
"y. c #B0380A",
"u. c #B8370C",
"i. c #A32C12",
"p. c #AB2D11",
"a. c #AF2D18",
"s. c #A92312",
"d. c #B22E12",
"f. c #B42711",
"g. c #A43213",
"h. c #AC3413",
"j. c #AD3914",
"k. c #A8351F",
"l. c #B33311",
"z. c #BF3010",
"x. c #BB3D12",
"c. c #BD3E1A",
"v. c #C12D15",
"b. c #D23418",
"n. c #C83908",
"m. c #AD401D",
"M. c #BE4E1A",
"N. c #BD5024",
"B. c #BE6339",
"V. c #D4481C",
"C. c #C74620",
"Z. c #CC4D22",
"A. c #CF4D28",
"S. c #CC4627",
"D. c #D34D23",
"F. c #DB4C22",
"G. c #CE5020",
"H. c #CC552C",
"J. c #C5582B",
"K. c #CD5B29",
"L. c #D65024",
"P. c #DC532C",
"I. c #D4532D",
"U. c #CF4D3D",
"Y. c #D14E34",
"T. c #D84E38",
"R. c #CB5235",
"E. c #C45C3E",
"W. c #CC5A3C",
"Q. c #CA533D",
"!. c #D15436",
"~. c #DA5431",
"^. c #DC5B33",
"/. c #D4543B",
"(. c #DA553C",
"). c #D6593D",
"_. c #DB5B3D",
"`. c #E45229",
"'. c #E55A2A",
"]. c #E05735",
"[. c #E25B36",
"{. c #E3553B",
"}. c #E55B3C",
"|. c #D06732",
" X c #DC6436",
".X c #EA6038",
"XX c #C84743",
"oX c #CD5A47",
"OX c #D55442",
"+X c #D35B42",
"@X c #DC5C44",
"#X c #D6574A",
"$X c #D35A4B",
"%X c #DA5648",
"&X c #CF5051",
"*X c #DF5E50",
"=X c #DC585D",
"-X c #E35C43",
";X c #E15D4A",
":X c #F2554C",
">X c #E45A58",
",X c #CD6041",
"<X c #C7604D",
"1X c #D36445",
"2X c #D3634A",
"3X c #DD6241",
"4X c #D96252",
"5X c #E76043",
/* pixels */
"{.).@XOXQ.2XT.a.:.l e p @XOX_.,.).1X-X/.OX:XE._.OXr.<.m w p -X%X",
">.0./.z.oX,.t.| H u 8 B +XB.R.0.w.2.L.h.d.J.<.w.k.+.( i < h -XOX",
"5.#.e.#.0.&.:.) K a $ h S.x.f.;.J.d.7.7.2.q.w.H.3._ K g , h A.a.",
";.K / :.( / / G G I # N *.| / ) H $.K T  .( ~ H / C F N , D *.G ",
"p p a k s M m h k 1 e o I a u j m M k s h A h g m j c . 8   D a ",
"5 0 7 ! 5 q , $ - 9 ! 9 , : , < , $ r 9 e - , t , 8 8 r r $ : e ",
"m B < 3 @ j l m A k A p h h A m A . < . I p D s h p p M m p p h ",
"9.-.j ; v E.`.|.,X#XK.$X$X2XU.w.f.c . R XX-XR.;X@X>XW.1X_.$Xl.s.",
"4.G h 8 h &Xl.OX#X@X+X!.h.+.w.>.^ p t a =X(.4X,X~.g.w.I.w.Z.0.>.",
"s.K g y g oX^.%X,.t.@.t.V.n.:./ J A , s 4XI.S.j.d.F.8.2.;.r.,.5.",
"K J p w m 4XF.h.w.V.t.,.2.;.:.,.K p # m +Xx.<.#.1.[.1.$.J w.@.>.",
"/ V j w a ;X9.;.`.2.,.2.G / p.H S i w N (.N.b.A.:.4.:._ | _ :./ ",
"H G k : A H.0.>.1.8.K K d.s.G H K N < p w.9.+._ 1./ H 2.G 3.) H ",
"~ H k 3 a 1.4.( / G H H H K K G ~ k < A { [ / G ) M ) G _ G K H ",
"N k   9 : v v s p m p p p p p p d : % X N j a j i g p h p h s h ",
"$ @ y W w 4 , = 7 9 e 9 7 7 w , 3 & Q w 6 , 5 8 , t , 9 e , t 9 ",
"p n f h A o Q 2 G L L H L / G K H ~ J H )   W 1 k k i k h p p p ",
"Z.m.1.>.7.j $ P OX*X).@X[.U.].-X3.h.:.@. .b 9 x _./.5X(.Y.}.{.}.",
"x.C.4.0. .M 7 H _.^.3X%.i.w.<.>.t.M.4.o. .M , p +X@XR._.i.(.1.2.",
",.9.:.T / p 5 G 3XQ.g.3X&.!.9.^.;.w.6.@._ p e h _.)./.g.w.$.c.C.",
">.t.1.@.H i 5 K ).h.U.#.-X;.}.w.5.,.#._ G g , i 3XR.g.%.I.w.Z.t.",
",.>.;.K G N w / P...w.7.:.z.,.| ,.#.2.:.G h 7 p _.-X%.}.}.L.t.#.",
"6.;._ K S a $ H 5Xp.!.w.g.D.h.,.5.>.) :.L M w M _.p.i.1.D.t.e.@.",
"6.,.>.<.K p 7 H [.$.w.P.'.,.,.0.:.,.S 6.P s t h }.s.~.t.,.,.;.e.",
"0.;.5.L G m 0 L _.%.e.>.&.&.>.,.:.,.6.3.K p w p  Xq.K.2.0.5.>.9.",
"2.O.@.L J M , K (.j.G.y.#.e.$.8.O.1.@.` G p w h OX<.h.4.#.,.8.7.",
",.} _ G / i 7 G 5.:.8.;./ @./ | #.;._ G H u w i OXp.:.4.>._ +.( ",
"/ L K Z ~ k , G >.;.+.;.,.e.,.p.L ` C L ( N < i w.;./ :.>.#.r.6.",
"J J K J / v 2 J ,.+.G L / / C L F K K G H a 1 j :.:.H ' L G K C ",
"m m k l x ; & < F M u p g g h p p p i f z 1 * < h h m a M g g g ",
"e , 8 : , r % 5 7 9 W r 5 5 5 , e w < < < $ & < 6 e 8 r $ * @ 7 ",
"p a B p h a B p d 2 : 2 d M N d p h p m p i N p m g x > < 2 j B "
};
