/* XPM */
static char *a7baa2fba86b4413ceb5afe27e3c191fgjFJnLoBVp4Qym1z[] = {
/* columns rows colors chars-per-pixel */
"32 32 216 2 ",
"   c #2F270C",
".  c #352C0D",
"X  c #392D0F",
"o  c #36310D",
"O  c #3B330D",
"+  c #2F2515",
"@  c #2C2A13",
"#  c #332515",
"$  c #342C14",
"%  c #392C14",
"&  c #34251B",
"*  c #39261D",
"=  c #352A1B",
"-  c #3B2C1C",
";  c #363114",
":  c #3A3214",
">  c #37301C",
",  c #3C321B",
"<  c #3E3B17",
"1  c #352522",
"2  c #352922",
"3  c #3B2B23",
"4  c #382628",
"5  c #362928",
"6  c #3A2927",
"7  c #3C3121",
"8  c #422C1E",
"9  c #42341B",
"0  c #43391A",
"q  c #433514",
"w  c #402E21",
"e  c #413129",
"r  c #413220",
"t  c #4B411B",
"y  c #6C6C0C",
"u  c #736E02",
"i  c #6C7704",
"p  c #6D740C",
"a  c #6D7D0D",
"s  c #73730C",
"d  c #747906",
"f  c #636413",
"g  c #6A6515",
"h  c #666B14",
"j  c #6C6B14",
"k  c #67671F",
"l  c #6B651A",
"z  c #6C6B1C",
"x  c #67681B",
"c  c #716F14",
"v  c #786D10",
"b  c #71671C",
"n  c #716D1D",
"m  c #786B1D",
"M  c #6C7213",
"N  c #6D741B",
"B  c #6D781B",
"V  c #727213",
"C  c #797514",
"Z  c #737B16",
"A  c #787914",
"S  c #74741B",
"D  c #76781B",
"F  c #7B7C1D",
"G  c #7A741B",
"H  c #6D6421",
"J  c #6A6725",
"K  c #736C25",
"L  c #7B6F25",
"P  c #6E7223",
"I  c #747323",
"U  c #76722C",
"Y  c #7E7821",
"T  c #788004",
"R  c #889B0E",
"E  c #8A9A06",
"W  c #939A0F",
"Q  c #87891E",
"!  c #8E9A14",
"~  c #8A931B",
"^  c #8D991B",
"/  c #86971D",
"(  c #949C12",
")  c #92951D",
"_  c #949C1B",
"`  c #9B9D1D",
"'  c #93A20A",
"]  c #93A216",
"[  c #9BA816",
"{  c #93A31C",
"}  c #9CA31C",
"|  c #9DAA1A",
" . c #AAAC0F",
".. c #AEB70F",
"X. c #AEA71C",
"o. c #ACAF1E",
"O. c #B3B51E",
"+. c #848A22",
"@. c #8C8E24",
"#. c #968F2B",
"$. c #859322",
"%. c #8B9323",
"&. c #8D9C24",
"*. c #8A952A",
"=. c #8E9A2A",
"-. c #919523",
";. c #949B24",
":. c #9B9C23",
">. c #939B2B",
",. c #9B9D2C",
"<. c #92912A",
"1. c #8A9630",
"2. c #8C9E30",
"3. c #919831",
"4. c #939A39",
"5. c #9B9835",
"6. c #A29D22",
"7. c #A39B2D",
"8. c #A29D34",
"9. c #A89E3A",
"0. c #A19738",
"q. c #8FA12D",
"w. c #96A021",
"e. c #9DA424",
"r. c #9FA926",
"t. c #9CA22B",
"y. c #9FAA2B",
"u. c #9DB42B",
"i. c #A4A325",
"p. c #A8A523",
"a. c #A0AE27",
"s. c #ABAE25",
"d. c #A2A32B",
"f. c #AAA32B",
"g. c #A7AB2B",
"h. c #ADAB2B",
"j. c #B2AD24",
"k. c #B2A32E",
"l. c #ADB423",
"z. c #ACB12A",
"x. c #AEB92E",
"c. c #B4B424",
"v. c #B4B92B",
"b. c #B8B529",
"n. c #ABA434",
"m. c #A5A931",
"M. c #ADAB34",
"N. c #AAA43A",
"B. c #ADAA3B",
"V. c #A3A735",
"C. c #B1A731",
"Z. c #B2AC33",
"A. c #B1A63C",
"S. c #B1AA3B",
"D. c #B8AF3D",
"F. c #AEB332",
"G. c #B4B534",
"H. c #B7B830",
"J. c #B4B53A",
"K. c #B9B53A",
"L. c #C0B830",
"P. c #BDC52C",
"I. c #BDC924",
"U. c #BCC831",
"Y. c #BDC23A",
"T. c #BEC838",
"R. c #C5CE1B",
"E. c #CBD61C",
"W. c #C7D41B",
"Q. c #C3C926",
"!. c #CBCE25",
"~. c #C6CB2D",
"^. c #CBCB2C",
"/. c #C1C02E",
"(. c #D3CE2E",
"). c #C5D225",
"_. c #CDD324",
"`. c #CBD22C",
"'. c #C7D82A",
"]. c #CBD62D",
"[. c #D3D62B",
"{. c #C3C434",
"}. c #C4CB33",
"|. c #C3C23B",
" X c #C9C73E",
".X c #C3CB3B",
"XX c #CCCD3B",
"oX c #CAC430",
"OX c #D3CE32",
"+X c #C5D133",
"@X c #CBD332",
"#X c #C5D338",
"$X c #CCD339",
"%X c #D0D433",
"&X c #D4DA34",
"*X c #D3D43B",
"=X c #D6D839",
"-X c #A79C46",
";X c #ABA444",
":X c #B4A542",
">X c #B4AC44",
",X c #B9AC44",
"<X c #B5B342",
"1X c #BAB349",
"2X c #BEC641",
"3X c #C5CA42",
"4X c #C9CB42",
"5X c #C1CF49",
"6X c #CBCC4D",
"7X c #D4CC46",
"8X c #D2CF4A",
"9X c #CCD543",
"0X c #C8D349",
"qX c #D1D94C",
"wX c #D6DA48",
"eX c #C8CA53",
/* pixels */
"% - * % N.0XR [ M J : @  ._.~.4X_ } ;.p ; m.l.7X_.N.$ $ L u u C ",
"= - * 3 % j V l z : = > H.XX}.;.4.%.>.V @ z.`.}.P.Q . + , , = = ",
"$ - = - = % $ : % = - - n.|.X.;.=.&.Y f ; F.@X#Xq.@.I > & 2 = > ",
"g.;X: $ - & - - # - - # q b l x M F h o = 5.&X}.1.t.h : # : B.Z.",
"qX}.f.: # 3 - * 3 - 3 * & , : $ $ % # 3 4 0 L.i.;.i z $ $ ,XO.`.",
".X#X_ H = 6 # : . ; $ X = = & - - - X 3 * % v n S n $ 2 > C.~.XX",
"_ ^ _ S - = : 7.J.i.G.k.- - w & 3 = o $ % = O = # : 3 4 $ j.[.3X",
"3.] i I @ ; ;Xl.$X`.=XoX- & * - 1 = s.m.v.V.g.; 3 - - 3 X c.Q.t.",
"K C g 9 2 = B.E.8X3X^ y.x . % - 6 k.c.).+XeX;.y - & w * 3 5 s y ",
". @ 9 + e , ,.O..X} w.+.U $ - & . H.*XY.{ =.=.i - # o % $ + $ o ",
"> = $ = 1 + O d.{ _ %.U : = * w % 5.9X;.$.q.*.a 6 o 7.D.n., - = ",
"M.Z.9.$ 7 = $ B.E ] p H . - - $ = q Y._ ^ | S h = e.b.*X^.$ # % ",
"j.~.O.O.o.N.$ = Z N U ; $ $ - - - # Y #.G y K o ; H.[.v.}.7., :X",
"[.}.^.`..X:.c O = + = $ % $ = & - # % - = $ - & $ c.U._ r.@.$ j.",
"oXwX~.`.) 5.l . = - ; 8.B.<X-X. # 7 - = = $ . 3 2 Z.%.w.&.x 0 X.",
"OXL.:.>._ n - 6 w % 9./.R.'.$XV = $ . N.J.M.h.X 6 . Z $.N B @ F.",
"u.;.%.V B P $ - ; g.c.9X~.r.4.*.= $ M...).~.=X{..X< = & $ % $ >X",
"d j . % # - # - = G.$X|._ ~ *.p 3 $ S.~.wXY.}.,.] f > 3 w # . $ ",
"$ - * - , - - w > n.h.Y ) i.<.s 3 , n.*XP.( ( ;.! T 2 = 3 1 - 3 ",
"- - - & - - 8 #   > = . V l , $ 3 # O ,.m.-.:.-.T x 2 = & w - & ",
"Z.M.N.O % & & - = C.h.% = : = = - . . S z c M d j : = - # X % X ",
"$XU.9XN $ # : ;XC.!.$Xd.S . = % 6 - = = = = = $ - # - & 0 6.n.>X",
"Y.[ r.J % . 6._.7X!.}.a.@.: & - o 7.K.J.5.o - - * - - , -X%X[.4X",
"6X( E Z H q ,XXX X_.8X*.;.g - 3 n.[.!.Q.*Xn - - - 8 & ; S.$XR.`.",
"&./ a h % % f.].2XR { { $.I % - j.(.4X2X{ &.S & q # X % S.%X^.-.",
"I M z > - & q f..X;.w./ D $ * 3 n.[.d / q.&.M ; 1 w 3 & $ C s c ",
"$ X $ - 3 1 & - s C F I K X # 3 % 6XU.a.$.M y ; * $ 1 , = @ ; # ",
"> - - # & 9 % $ ; $ # 3 = o 9 & 2 : x y D J $ = - . X 7.M.G.z.G.",
"n $ 3 = , 5.z.h.n.: - = # - = 2 - & % % % 9 * - - - A.Z.[.].#X}.",
"V o 2 = 8.@X'.).4Xl 7 3 % = = 3 % . X % - # * * $ - C.8X_.U.q.,.",
"z ; & % c.E.}. X;.z > # 0 i.c.F.:X1X7.O # - - ; - = ; <XP.} ;.%.",
"D # * % C.!.OX0.' I $ ; 8.b.I.'.E.U.#Xg , = - z.X.Z.. 4X} -.>.N "
};
