/* XPM */
static char *_b974fc9f848475e8e7ea2df033a692ebA1MqCxBBxfC3pYo[] = {
/* columns rows colors chars-per-pixel */
"50 57 157 2 ",
"   c black",
".  c #010000",
"X  c #000100",
"o  c #010101",
"O  c #030000",
"+  c #000002",
"@  c #010002",
"#  c #040000",
"$  c #070000",
"%  c #080000",
"&  c #0A0000",
"*  c #0B0000",
"=  c #0C0000",
"-  c #0D0000",
";  c #0E0000",
":  c #0F0000",
">  c #110000",
",  c #120000",
"<  c #150000",
"1  c #190000",
"2  c #1B0000",
"3  c #1D0000",
"4  c #200000",
"5  c #210000",
"6  c #220000",
"7  c #230000",
"8  c #4F160B",
"9  c #531403",
"0  c #541503",
"q  c #561503",
"w  c #571107",
"e  c #571306",
"r  c #541504",
"t  c #561404",
"y  c #551605",
"u  c #561406",
"i  c #5B1300",
"p  c #5D1200",
"a  c #5D1300",
"s  c #5E1300",
"d  c #5B1400",
"f  c #5E1400",
"g  c #50160A",
"h  c #50160B",
"j  c #51170B",
"k  c #581208",
"l  c #4D1611",
"z  c #461914",
"x  c #641100",
"c  c #7F3F00",
"v  c #7F3F01",
"b  c #7D3D0D",
"n  c #7E3F0C",
"m  c #7D3F0E",
"M  c #7E3E0E",
"N  c #7F3F0F",
"B  c #7E3E10",
"V  c #7C3E19",
"C  c #7D4001",
"Z  c #7F4000",
"A  c #7E4100",
"S  c #7C4002",
"D  c #7D4102",
"F  c #7D4103",
"G  c #7E4102",
"H  c #7E4003",
"J  c #7B4006",
"K  c #7A4207",
"L  c #7C4105",
"P  c #7D4105",
"I  c #7E4204",
"U  c #7C4107",
"Y  c #7D4206",
"T  c #77420C",
"R  c #77420E",
"E  c #76430E",
"W  c #784108",
"Q  c #784109",
"!  c #794209",
"~  c #7B4308",
"^  c #7A4209",
"/  c #78410B",
"(  c #79420A",
")  c #7A430A",
"_  c #7C4109",
"`  c #78430D",
"'  c #6F4316",
"]  c #6E4318",
"[  c #6B441B",
"{  c #6F4419",
"}  c #6B461C",
"|  c #6C451C",
" . c #6C451E",
".. c #724211",
"X. c #724212",
"o. c #734312",
"O. c #754310",
"+. c #774311",
"@. c #724413",
"#. c #724315",
"$. c #724317",
"%. c #704415",
"&. c #644526",
"*. c #654627",
"=. c #6B4520",
"-. c #694620",
";. c #803F00",
":. c #803E01",
">. c #833D02",
",. c #813F02",
"<. c #813F03",
"1. c #833E03",
"2. c #843E03",
"3. c #853C05",
"4. c #843D05",
"5. c #8E370C",
"6. c #8E360E",
"7. c #8F360E",
"8. c #883A09",
"9. c #8A3A09",
"0. c #8B390A",
"q. c #8B380C",
"w. c #8C380C",
"e. c #843A13",
"r. c #803D10",
"t. c #813C12",
"y. c #833C12",
"u. c #8A3719",
"i. c #804000",
"p. c #814000",
"a. c #804100",
"s. c #814101",
"d. c #804002",
"f. c #814103",
"g. c #9F784F",
"h. c #9F7A50",
"j. c #9F7952",
"k. c #9F7954",
"l. c #9D7A54",
"z. c #9E7B55",
"x. c #997B59",
"c. c #9B7A59",
"v. c #997A5B",
"b. c #9A7B5C",
"n. c #A77746",
"m. c #A87847",
"M. c #A67749",
"N. c #A6774B",
"B. c #A47849",
"V. c #A7784A",
"C. c #A3784D",
"Z. c #A2784E",
"A. c #A4794E",
"S. c #A07950",
"D. c #A37951",
"F. c #A17A51",
"G. c #A07952",
/* pixels */
"                                                                                                    ",
"                                                                                                    ",
"                                                                                                    ",
"                                                                                                    ",
"                                                                                                    ",
"                                                                                                    ",
"                                                                                                    ",
"                                                                                                    ",
"                                                                                                    ",
"                                                                                                    ",
"                                                                                                    ",
"                                                                                                    ",
"                                                                                                    ",
"                                                                                                    ",
"                                                                                                    ",
"                                                                                                    ",
"                                                                @ @   o                             ",
"                                                                @                                   ",
"      $                                                                                             ",
"                                                                                                    ",
"        @ @                                                                 $                       ",
"                                                                                                    ",
"                                                  o                                         o o     ",
"                    $ & & - & - - - & & & - & & & & & - & & - &                             o o     ",
"                  $ - < 3 5 5 5 5 5 5 5 5 5 5 5 5 5 5 5 5 5 5 2 $               o o                 ",
"                  $ < z h y r r r r r r r r r y y y r r 0 t t h 2 , , - - &     o                   ",
"@ @               & 2 8 V M M M M _ M M M M M M +.B M M M t.e.s d d a r l 2 $               @ @     ",
"@ @               & 5 y M Z p.Z Z p.Z p.p.p.p.Z ,.,.p.p.p.,.3.8.w.6.6.u.k 5 &                       ",
"                  & 5 y M ,.c p.p.c Z p.c Z p.Z Z c Z p.p.Z ,.,.<.<.3.t.r 5 &                       ",
"                  - 5 y M Z ~ ` ` ~ / ~ ~ ~ ~ / ~ ~ Z p.Z p.Z Z Z Z ,.B r 5 -                       ",
"                  - 5 r M L V.S.j.S.j.g.S.S.j.Z.j.B.~ p.Z p.p.Z v f.f.B u 7 & o                     ",
"                @ - 5 r _ L $.} [ } } } } } [ | [ ' ~ p.p.Z p.Z f.c Z f.u 5 & o                     ",
"                  & 7 r +.p.~ ~ ~ / / / ~ / ~ ` n K Z Z Z p.Z p.Z p.Z _ r 5 -                       ",
"                  - 5 r r.p.,.,.c Z K ~ ~ W ~ ~ S c Z Z Z p.p.Z p.Z p.B r 5 -                       ",
"                  & 5 r M Z p.p.p.~ X.S.[ [ [ X.~ p.Z p.Z Z Z Z Z p.p.B r 5 &                       ",
"                  & 7 r M p.p.p.p.~ $.j.j.j.j.S.+.~ L L L Z Z Z p.Z p.M r 5 -                       ",
"            @ @   & 5 r M Z p.Z p.Z ~ ~ ~ E %.Z.Z.V.B.~ v Z Z p.Z p.p.M y 5 &                       ",
"            @ @   - 7 r M p.Z p.Z p.p.Z c c ~ o.] | X.~ K Z c p.p.Z Z M r 5 -                       ",
"                  - 5 0 M Z p.p.p.Z p.Z Z L L L ~ ~ K Z Z c p.Z Z p.Z M r 5 -                       ",
"                  - 5 0 M p.p.p.Z p.Z p.p.p.Z Z c ,.,.c Z f.Z p.p.Z p.M r 5 &                       ",
"                  & 5 r B p.p.Z Z Z Z p.Z p.Z Z ,.c Z ,.p.p.p.Z Z p.Z M r 5 -                       ",
"                  - 5 r B p.p.Z Z Z ` ` / ~ ~ ~ / E ~ ~ Z p.c p.p.Z p.M r 5 &                       ",
"            o o   - 5 r M p.Z p.Z / k.&.=.[  .=.&.v.k.M.~ c ,.Z Z p.p.M r 7 &                       ",
"            o     & 5 r M Z p.Z Z ~ k.v.l.j.g.j.v.v.=.X.~ p.c ,.p.Z p.r.r 5 &                       ",
"                  & 5 r M Z Z Z p.Z E E T / ~ ~ E E ~ K c c v <.Z p.Z B r 5 -                       ",
"                  - 7 r M Z L L K S Z Z Z Z S K K ~ b ~ ~ ~ ` ~ Z Z p.M r 7 -                       ",
"                  - 5 r M L ~ E E ~ Z Z Z S / m.Z.[ [ [ }  .=.$.~ p.Z M r 5 &                       ",
"                  & 5 r M L ~ m.Z.' ` ~ Z Z ~ O.| g.g.g.S.S.S.M.L Z p.t.r 5 -                       ",
"                  & 7 u f.L L E c.*.%.~ L Z v K ~ ~ / ~ ~ / ~ ~ Z <.3.e.w 5 &                       ",
"            @ @   & 7 r B p.Z ` z.c.S.@.E K Z c Z p.c Z Z c c c ,.<.8.s h 2 &                       ",
"                  - 7 r B p.Z Z / o.j.k.j.B.~ Z Z c c f.Z c c c p.<.6.s 2 &                         ",
"                  - 7 r M p.p.Z Z K @.[ } ' ~ Z ,.K ~ E ~ ~ ~ ~ Z 3.6.s ,                           ",
"                  & 5 r M ,.Z p.c Z n ~ ~ ~ c c Z / l.v.=.}  .X.K 3.6.d ,                           ",
"            $     & 5 u y.,.,.p.Z K v ~ ~ ~ L K Z ~ -.v.k.S.j.M.L 3.w.d 2 $                         ",
"        o o       - 5 w x 0.2.p.p.~ m.G.S.S.n.~ L L ~ E / ~ ~ ~ Z f.0.x 8 2 &                       ",
"        o o       - 5 k x 0.3.p.,.L #. .} ] X.~ Z c c Z Z c c Z ,.f.3.e.r 5 &                       ",
"                  & 7 u y.p.f.p.,.Z L ~ ~ ~ n S Z Z Z Z Z Z p.Z p.p.,.B t 5 -                       "
};
