/* XPM */
static char *_7a0584388ed4ec18c1bd987555217ed9tIIptMDZ0L9UXBo[] = {
/* columns rows colors chars-per-pixel */
"32 32 222 2 ",
"   c #768837",
".  c #6C8B47",
"X  c #6C8C4D",
"o  c #6D854C",
"O  c #798B45",
"+  c #74894C",
"@  c #7C8C4C",
"#  c #758D43",
"$  c #6F924E",
"%  c #7C904C",
"&  c #7B9544",
"*  c #6A8C57",
"=  c #748D54",
"-  c #7D8C52",
";  c #7A8D5B",
":  c #75895A",
">  c #6D9157",
",  c #719252",
"<  c #7B9254",
"1  c #75925C",
"2  c #7D935A",
"3  c #789853",
"4  c #738A60",
"5  c #66906F",
"6  c #7C9363",
"7  c #779767",
"8  c #6F9D75",
"9  c #7FA170",
"0  c #838D4E",
"q  c #888F43",
"w  c #82934C",
"e  c #818D53",
"r  c #808B56",
"t  c #849253",
"y  c #87935C",
"u  c #829C5D",
"i  c #849857",
"p  c #82A551",
"a  c #808F63",
"s  c #839B6B",
"d  c #869969",
"f  c #939A66",
"g  c #889B77",
"h  c #939D7C",
"j  c #88A26A",
"k  c #91A16B",
"l  c #8CA577",
"z  c #91A579",
"x  c #98A878",
"c  c #A0AA6F",
"v  c #A1AC7A",
"b  c #7ECFDD",
"n  c #7BE3DE",
"m  c #78DCE4",
"M  c #72DFF0",
"N  c #7CE4EB",
"B  c #7AE7E7",
"V  c #7CF0EA",
"C  c #68EBFD",
"Z  c #7DE5F4",
"A  c #7DEBF3",
"S  c #7DE4FB",
"D  c #7CEAFC",
"F  c #6EFEFF",
"G  c #74F1FF",
"H  c #76F5FF",
"J  c #95AE85",
"K  c #8DB085",
"L  c #9EB388",
"P  c #9EB894",
"I  c #A3AE87",
"U  c #A1B38B",
"Y  c #A5BE93",
"T  c #B3CC8D",
"R  c #A5C39D",
"E  c #B4CD95",
"W  c #B4CD9F",
"Q  c #BBCC9E",
"!  c #BDD895",
"~  c #8ECFBE",
"^  c #AFCAA7",
"/  c #B5CCA6",
"(  c #B9CCA4",
")  c #B4CDAB",
"_  c #BDCDAA",
"`  c #BFC5AA",
"'  c #AED5A1",
"]  c #B4D2A5",
"[  c #BBD2A4",
"{  c #B5D1AC",
"}  c #BBD3AC",
"|  c #BBD9AB",
" . c #B4CEB1",
".. c #BCCEB3",
"X. c #B6CDBA",
"o. c #ADD1B3",
"O. c #B5D2B4",
"+. c #BDD4B4",
"@. c #BCDAB5",
"#. c #B6D1BD",
"$. c #BCD3B9",
"%. c #B6DBB9",
"&. c #BEDABB",
"*. c #BBE2B5",
"=. c #C5CA95",
"-. c #C1D39B",
";. c #CAD39F",
":. c #C4C8A3",
">. c #C0C6AB",
",. c #C4CDAC",
"<. c #C9CAA0",
"1. c #D1CDA8",
"2. c #C3D3A6",
"3. c #C2D4AC",
"4. c #CAD2AE",
"5. c #C4DAAE",
"6. c #C9DFAD",
"7. c #C7D9A4",
"8. c #D9D7AA",
"9. c #C3CEB4",
"0. c #CCCEB1",
"q. c #CACFB8",
"w. c #D1CBB8",
"e. c #C4D4B3",
"r. c #CAD5B5",
"t. c #C5DAB3",
"y. c #CBDBB4",
"u. c #C5D4BB",
"i. c #CBD4BB",
"p. c #C5DBBB",
"a. c #CBDCBC",
"s. c #D2D5B3",
"d. c #D2DCB5",
"f. c #D2D5BA",
"g. c #D4DCBE",
"h. c #DADEBB",
"j. c #D9DCB4",
"k. c #C3E1B5",
"l. c #CAE4B6",
"z. c #C4E3B9",
"x. c #CCE2BC",
"c. c #D3E1BC",
"v. c #DBE1BA",
"b. c #97DBD4",
"n. c #82D8C7",
"m. c #BACFC0",
"M. c #A8D9C9",
"N. c #BCD2C1",
"B. c #B6D7C8",
"V. c #86E6DA",
"C. c #97E4D8",
"Z. c #8DE7C8",
"A. c #BEE0C9",
"S. c #88DBEB",
"D. c #84DBE9",
"F. c #82DFF1",
"G. c #90DFFE",
"H. c #85E5E4",
"J. c #84E3EC",
"K. c #85EAEE",
"L. c #87E7EA",
"P. c #93EAEC",
"I. c #83E4F5",
"U. c #8EE5F3",
"Y. c #83EBF5",
"T. c #8BECF2",
"R. c #83E5FB",
"E. c #8CE5FE",
"W. c #84EBFD",
"Q. c #89ECFD",
"!. c #93E5FD",
"~. c #90E9F5",
"^. c #84F3FF",
"/. c #8BF2FF",
"(. c #93F1FF",
"). c #A0EEE0",
"_. c #A1ECF2",
"`. c #C2CEC2",
"'. c #C7D5C5",
"]. c #CCD6C3",
"[. c #C4DBC1",
"{. c #CCDCC2",
"}. c #CBD6CB",
"|. c #C5DBCA",
" X c #CBDDC9",
".X c #D1DDC4",
"XX c #D5DCCC",
"oX c #D7D8C5",
"OX c #CFDFD2",
"+X c #D8DDD6",
"@X c #E1DECB",
"#X c #E4DED5",
"$X c #F0DED0",
"%X c #C3E5C4",
"&X c #CDE1C5",
"*X c #C3E1CC",
"=X c #CCE2CA",
"-X c #C8ECC8",
";X c #D3E3C4",
":X c #D9E3C3",
">X c #D4E3CB",
",X c #D9E5CB",
"<X c #D5ECCA",
"1X c #DBEACD",
"2X c #D8E8C7",
"3X c #C6E1D3",
"4X c #CFE6D4",
"5X c #D3E4D2",
"6X c #DBE3D2",
"7X c #DCEBD2",
"8X c #D3E1D9",
"9X c #D6EBD5",
"0X c #D0F3DF",
"qX c #E1E5CD",
"wX c #E3EACB",
"eX c #E5EBCA",
"rX c #E1E6D5",
"tX c #E7E9D7",
"yX c #E2F1D6",
"uX c #E7F3D6",
"iX c #DDE8E0",
"pX c #E7E8E2",
/* pixels */
".Xp. Xf..X>XXXwX=Xu.y.f ;X* C C.Q.I.Q.Y.I.W.R.R.G R.C.G o.l.f 8.",
"t.%.%X;Xt.@.&Xk.%Xp.x.,.oXa (.O.+.@.{ +.@.) +.+.@.+.Q !./ p.p.t.",
"t 2 + , r y @ - X 1 . 3 6 O H._ c._ t.c.y.x.wX2X .=X6 b d * ; = ",
"J.(.N H Q.R.L.Q.V Y.A Y.G.b.G M.u.P u.{.u.9X=X Xk a.* G Z.L.^.G ",
"+.+.P ). .B._  .0.>.t.[ &.T E.q.y.f.wXh.wXuXf.oXr.i.; ~.t.] } } ",
"r.&Xj V.$.|.-.=X{.6XA.o.|.u H.! .X1X>X{.a.].{.].6.x.; m O.&XX.>X",
"h 0., B +.N.c p.rXtX:.v i.= E.B.7X1X{.{.].{.7X X5.c.o ~.[ 3.x h.",
"i.h.= Y...8X=.7X9X[.l.-.c.+ Y.o.2X{.a.].7XyX{.{.;Xu.6 Q.{  X+XtX",
"].yX. W...}.*X+XN.&Xt.-X{.O R.] p.r.%X;X0Xa.=X.X2X9X: E.+.,X@Xf.",
"6X5X% Q.Q c.! l.,Xi.wX-XoXt E.| >X` 5Xg.}.f.'.XXd.1X; U.W x.c.f.",
">X5X0 Q.,.u.v i.3.eXj.J 0.- D.| } I r.1.i.v.>XeXz } 1 F.@.|.`.iX",
"f |   T.e.}.<.oXc.1Xa.O.=Xs !.o.z.( l.d.y.6.x.t.r.i.a S.5.3.U [ ",
"r.A.i V.8 > & . - ; ; 1 : = ~ 7 < = % = @ = < - < = % P.E z.t.[.",
"q > $ T.S H.Y.W.~.F.Z Q.W.Y.G Q.Y.Y.Y.D S W.I.E.D W.C.G 5 : e 0 ",
"I.W.D.S R.u.} 3.} { %.} ] t.o.( | %.^ M.%.M.} } Q a.R ^.b.U.R.D ",
"3.} O.B.!.Q 5.a.a.a.[.a.a.r.p.8.7.+.g b.&.B.c.4.z.) d S.[ { } { ",
"a.} p.w A ^ t.z ].a.{.].i.u..X1Xh 3.@ Y.2.5.l q.g 5.w N t.&X( g.",
"e.U _ w /.+.d.t.{.;X,X>X.X2X9X,X5.t.e /.( x.5..Xr.y.O Y.3._ Y g.",
" X_ {.- A +.a.r..X,X,X>X.X1X7X.Xa.t.- R.( a.t.XX7Xx.O W.e.>Xa.qX",
"}.2X=X@ D { 2Xr.2X1X.Xu.{.;X{.i.r.a.; S e.a.t.rX&Xa.- S _ 9X2X.X",
",X2X'.< ^.^ {.a.>X;Xu.u..X{.u.;X1Xp.y R.+.{.<XrXa.p.- W...=Xa.].",
"4Xt.}.@ W.$.u.c.].{.i..X7X.X].7X1Xe.- W./ a.;X].{.a.e W.+.{.a.tX",
"{.a.&XO A &.a.t.a.a.;X,X,X;X2X1Xa.x.- W.3.p.t.XXa.x.0 S _ &Xa.,X",
"{.l.u.t Y.{ d.r.].&X7X6Xa.].>X].t.x.@ R.3.t.y.rXa.t.@ Y.} {.3.g.",
"5.x +.# Y. .i.k a.XX+Xa. X].j.y.j 6.3 N :..XrX6Xi..X@ Z 3.$.l p.",
";X,.[.- (.X..X2.z.[. X*.%.[.&Xz.s.].a Y.0.,X7X[.=Xe.@ ^./ {.} :X",
"= 2 9 # n.7 ; % O 0 e # t e : @ 1 4 X N _ ;X>XN.'.;Xt m 6 6 , + ",
"W.N A H.F M Y.T.T.Q.F.B E.J.C W.n L.Z.F X.a.s.j.tXqX= G b.H.V ^.",
"0.,.u.1.#.e.e.=.} ) u.*.i.Y P.$.$.'.) S r.>X9.uX;Xc.O W.} u.+.` ",
"2X2X{.f.=X<Xp.g.z.&Xx.' i.j L.} a.$.l m ;.-.x T g Q 0 Z @.|.#.OX",
"2X X X@XeX<X@.g.,X,X9.K w.+ Z } v._ k Q.9.'.m.3X Xp.i R.y.,.x 8.",
"=Xu.=XpXs.%.z.,X6X{..X] $XO N j u k p n @ = < , 1 =   Y.] =X+.uX"
};
