/* XPM */
static char *_eac083262204af29afc87ed47f541d40frl4mTf4PNsWOxL[] = {
/* columns rows colors chars-per-pixel */
"32 32 146 2 ",
"   c #3FFFC8",
".  c #43F5C3",
"X  c #4CF4C5",
"o  c #44FBC5",
"O  c #4EF8C7",
"+  c #4DF7CA",
"@  c #45FFCB",
"#  c #4CFDCB",
"$  c #55F7C6",
"%  c #56F6CA",
"&  c #5CF5CC",
"*  c #54FCCD",
"=  c #5CFBCD",
"-  c #44FFD0",
";  c #4DFFD1",
":  c #5CF6D0",
">  c #53FED2",
",  c #5CFDD3",
"<  c #5BFFD9",
"1  c #68EFCE",
"2  c #62F6CD",
"3  c #6BF4CE",
"4  c #62FACF",
"5  c #63F5D1",
"6  c #6DF6D3",
"7  c #63FCD4",
"8  c #6AFCD4",
"9  c #65FFDA",
"0  c #6CFFDB",
"q  c #74F7D7",
"w  c #7BF5D7",
"e  c #73FCD6",
"r  c #79FBD6",
"t  c #74F7D8",
"y  c #7BF6D8",
"u  c #73FFDC",
"i  c #7CFEDC",
"p  c #67FFE5",
"a  c #6FFFE0",
"s  c #74FFE1",
"d  c #7CFFE3",
"f  c #73FFEA",
"g  c #93EFD8",
"h  c #82F4D6",
"j  c #84F7DC",
"k  c #8CF7DE",
"l  c #83FCDD",
"z  c #8BFADC",
"x  c #93F5DC",
"c  c #93F9DE",
"v  c #8DF6E2",
"b  c #83FEE3",
"n  c #8BFDE4",
"m  c #84FFE8",
"M  c #8BFFE9",
"N  c #91F6E3",
"B  c #9BF5E4",
"V  c #90FAE4",
"C  c #93FBE4",
"Z  c #92F9E6",
"A  c #91FBE7",
"S  c #93F9E4",
"D  c #90FCE5",
"F  c #97FFE4",
"G  c #95FCE7",
"H  c #93FCE4",
"J  c #9CFCE1",
"K  c #9AFFE4",
"L  c #9FFCE7",
"P  c #9FFEE6",
"I  c #9BFDE5",
"U  c #91FCE8",
"Y  c #90FFE8",
"T  c #90FFE9",
"R  c #93FFE8",
"E  c #92FFEA",
"W  c #93FFEF",
"Q  c #93FEEA",
"!  c #9AFBE8",
"~  c #9EF9E8",
"^  c #98FEE8",
"/  c #98FFE9",
"(  c #9AFFE9",
")  c #99FCEA",
"_  c #9CFFE9",
"`  c #9CFFEB",
"'  c #9DFFEB",
"]  c #9BFFEE",
"[  c #9CFFEC",
"{  c #9FFFEC",
"}  c #9EFFED",
"|  c #9AFFEB",
" . c #9DFFF1",
".. c #9CFFF2",
"X. c #A4F6E5",
"o. c #ADF7E6",
"O. c #A2FFE7",
"+. c #A4FCE4",
"@. c #ABFAE5",
"#. c #A9FEE7",
"$. c #ADFBE5",
"%. c #AFF6EE",
"&. c #A0FFE9",
"*. c #A2FFE9",
"=. c #A2FFEB",
"-. c #A3FEEC",
";. c #A2FFEC",
":. c #A3FEEF",
">. c #A6FDEC",
",. c #A5FEEC",
"<. c #A4FFEF",
"1. c #A7FFEE",
"2. c #A5FEEC",
"3. c #AAFDEB",
"4. c #A9FFEE",
"5. c #ACFDEC",
"6. c #ABFEEC",
"7. c #B2F5EC",
"8. c #BDF6EF",
"9. c #B0F8EA",
"0. c #B4FFED",
"q. c #B1FDEC",
"w. c #BEFBED",
"e. c #A0FFF1",
"r. c #A2FFF0",
"t. c #A3FFF3",
"y. c #A7FFF1",
"u. c #A3FFF6",
"i. c #A3FFF1",
"p. c #A8FFF2",
"a. c #ABFFF3",
"s. c #ACFFF0",
"d. c #AFFFF0",
"f. c #AEFEF2",
"g. c #BBF6F0",
"h. c #B0FFF0",
"j. c #B2FFF0",
"k. c #B1FDF3",
"l. c #B7FDF2",
"z. c #B4FFF3",
"x. c #B7FFF3",
"c. c #B7FFF6",
"v. c #B4FEF3",
"b. c #BAF9F0",
"n. c #BEFAF0",
"m. c #BCFEF2",
/* pixels */
"M b m b b M M Z Q _ 8.b &.n d d v M u y *  .a.S H z b b u > # s ",
"e.Z M b d m b b i 8 Q d m j b b > > > d i #.S u l n M l 6 6 6 i ",
":.v b b n n M n d , _ b u t 5 ; 2 = * 7 # 4 & > 8 d d , * 0 r r ",
"W Z G M s s n B l & l = 7 d d s z / *.K r 8 * @ > < < o @ < * # ",
"a.Z j d n m b y 9 O 7 > b z.:.c.$.K q O r J #.O.=.:.6.9.j.E 3 3 ",
"l.1.b b d y u , 4 2 = = j w.v B d b i 7 _ =.P V B b b l M 0 = u ",
"6 E / b 9 7 d [ 0._ u , % 6.b z n ! n : M m M v n d 9 = 2 5 3 b ",
"7 0 > & b [ 1.>.x i 8 u = d.E b d M m < u.M s < * 7 b n *.0.O.l ",
"@ = i i.6.n d ! n + 8.6.] O l.i M f p 5 i 7 = * E i.%.j.u.v b M ",
"= 8 z x M b b d d > 1.F n % #.c v b m 8 > o e +. .e.Z v n d M n ",
"= z z q y M b b 5 2 M j i 9 n 5.W m E j d 7 b 6.n n d b m M M d ",
"6.:.*.G 9 % 3 < W 1.W M d 0 8 6.s m / j s 7 j d.A b d M Z A d , ",
"i./ M M i % 8 n ..%.n n b d = 6.Z M 0 : 9 u v P ] v n n v n 0 , ",
"g.b j Z < * l b m g d v b M 5 5.M u 9 , M p.G & 1.S G b b i u 0 ",
"] b b d = 4 F c d v d A M d 9 W o i ~ ~ n n d : ] E n b u 9 5 s ",
"n d M b # 3 5.z m m M v s : # 7 = Q 0.Q b d b M : 6 b M d , X < ",
"n n i z 3 =.B W d 8 # * ; $ 7 = d.-.n m d a f m i > / Z s d - & ",
"; 9 7 r . u 2 & 6 d Q E u 8 n H v Q M d b X.X.N h S =.Z n E i , ",
"M G y z = / / e.:.1.X.n * = A B n d d b u 4 w 6.n 1.E d b b 8 * ",
"W b = 7 * E M m d d b d 9 0 W h 0 4 % * 4 i G Q G b n b E b , / ",
"b m e l 8 F M d M i M d > + 7 & , = # # * , , , o % 8 & , @ * =.",
"n Q b n : b E ] M b M b % 9 ] z.5.#.1.d.n 7 & i # 1.[ m 9 > 6.w.",
"n E s u - 7 b v M m n j t b n n b M M b b E d > 4 +.G d # @ 6.c ",
"b d , 7 + t d f Z s < 9 u  .] j M n v S n s < * #.z H v : > / $.",
"# 8 K 6.M 4 $ = # @ , 7 E e.d Z b b n m b : , d 1.B d % d 7 = _ ",
"7 S #.K u o = :.= O 4 = r n d S d n N i b # = ] *.I d 2 1.S 4 , ",
"X./ u X # n @._ u 8 d u y w u n / s [ M ; @ K 0.n S b & *.m.#.=.",
"4 = = i 1.6.c H = y _  .Q M s 0 b b m & , ; z q.b b 0 7 / 6.H l ",
"u > , c w.*.i i : G 1./ E b u 9 , , 9 2 / u 4 3 7 , ; . = 7 0 n ",
"K H r * 7 =.#.< : 1.S i d m M b s > % 6 K l r = ; 0 Q 6.F 9 3 w ",
"/ O.#.=.H 7 = g * i.Q b d m v v n d 7 , G i r K j.1.=.0.1.H i 7 ",
"9.K l n [ 1.@.j.- [ Z n d d Z M x i b i 4 7 J 6.v n b d i r 7 o "
};
