/* XPM */
static char *e7c5bd5fbcf04e59c9c81f45ca8cc357AxJF7eaXAiBmygoD[] = {
/* columns rows colors chars-per-pixel */
"32 32 173 2 ",
"   c #1D242B",
".  c #242D25",
"X  c #21272A",
"o  c #252C2C",
"O  c #282F2F",
"+  c #273026",
"@  c #2A3425",
"#  c #26302B",
"$  c #2A332C",
"%  c #2E392C",
"&  c #323C2E",
"*  c #212633",
"=  c #252C32",
"-  c #282F34",
";  c #24273A",
":  c #252A39",
">  c #282E3C",
",  c #273033",
"<  c #2A3233",
"1  c #2E3832",
"2  c #27303A",
"3  c #2C343A",
"4  c #323A33",
"5  c #242A41",
"6  c #272C4A",
"7  c #353C46",
"8  c #353B48",
"9  c #667B4A",
"0  c #657751",
"q  c #6A7D55",
"w  c #697C5B",
"e  c #6F7F64",
"r  c #748E3E",
"t  c #78923E",
"y  c #6F854C",
"u  c #708747",
"i  c #748D44",
"p  c #74874D",
"a  c #748B4C",
"s  c #788F4D",
"d  c #789244",
"f  c #7F9A46",
"g  c #779148",
"h  c #7B924D",
"j  c #7F984F",
"k  c #6D8353",
"l  c #6E8259",
"z  c #718554",
"x  c #758C53",
"c  c #798E54",
"v  c #72855D",
"b  c #748A5B",
"n  c #798E5B",
"m  c #769053",
"M  c #7C9354",
"N  c #7F9850",
"B  c #7C935B",
"V  c #7F985C",
"C  c #6E8260",
"Z  c #718463",
"A  c #778B63",
"S  c #7A8E62",
"D  c #748A6A",
"F  c #7C8C6F",
"G  c #7C9263",
"H  c #7C916A",
"J  c #748374",
"K  c #7E8E70",
"L  c #81974F",
"P  c #849F4E",
"I  c #819654",
"U  c #839A54",
"Y  c #889E56",
"T  c #82955C",
"R  c #839A5C",
"E  c #889E5A",
"W  c #88A15B",
"Q  c #819663",
"!  c #859A63",
"~  c #899C63",
"^  c #82966C",
"/  c #869B69",
"(  c #8B9D6B",
")  c #8B9C74",
"_  c #8BA265",
"`  c #8EA569",
"'  c #90A962",
"]  c #92A56C",
"[  c #95AC6D",
"{  c #99AE6D",
"}  c #98B367",
"|  c #9BB46D",
" . c #94AB73",
".. c #99AD73",
"X. c #95AC7B",
"o. c #9AAE7B",
"O. c #9CB374",
"+. c #9CB37C",
"@. c #A1B66D",
"#. c #A3BA75",
"$. c #A1B67E",
"%. c #A2BA7C",
"&. c #A9BE7B",
"*. c #97AB85",
"=. c #9BAE82",
"-. c #9CAC89",
";. c #9DB484",
":. c #9DB28A",
">. c #9EB888",
",. c #A1B684",
"<. c #A3BA83",
"1. c #A8BD86",
"2. c #A1B58C",
"3. c #A4BB8B",
"4. c #A8BE8B",
"5. c #A1B590",
"6. c #A6BA91",
"7. c #AABE93",
"8. c #A8C187",
"9. c #AAC18B",
"0. c #B9D18F",
"q. c #ACC293",
"w. c #AFC49B",
"e. c #B1C695",
"r. c #B4CB95",
"t. c #B8CC97",
"y. c #B1C79B",
"u. c #B5CD9C",
"i. c #B9CE9D",
"p. c #BBD297",
"a. c #BBD29C",
"s. c #B2C6A1",
"d. c #B6CBA5",
"f. c #B9CDA3",
"g. c #BACEAB",
"h. c #BDD3A3",
"j. c #BBD5A9",
"k. c #BAD2AC",
"l. c #BDD1AE",
"z. c #BDD3AF",
"x. c #BED1AD",
"c. c #BED2AC",
"v. c #B5C7B1",
"b. c #B8CAB0",
"n. c #B9CDB1",
"m. c #BBCEB1",
"M. c #BCCFB1",
"N. c #BCCFB3",
"B. c #BDCEBE",
"V. c #BDD2B3",
"C. c #BED0B5",
"Z. c #BFD8B0",
"A. c #C0D29E",
"S. c #C0D7A1",
"D. c #C0D7A4",
"F. c #C1D8A2",
"G. c #C2D8A5",
"H. c #C0D5AC",
"J. c #C1D4AC",
"K. c #C5DAAF",
"L. c #C4D9AA",
"P. c #C2D7B1",
"I. c #C0D4B1",
"U. c #C0D3B5",
"Y. c #C3D7B4",
"T. c #C1D4B6",
"R. c #C2D6B2",
"E. c #C4D8B3",
"W. c #C0D2B9",
"Q. c #C3D5BB",
"!. c #C6D6BB",
"~. c #BDCDC2",
"^. c #C4D5C2",
/* pixels */
"K.f.V.V.T.k.f.;.$.j o x ~.~.R.+.g.k.l.x.g.T.T.b.v.%.*.M + x V.H.",
",.3.w.3.h.2.4.+.x a o V Q.d.a.%.<.;.u.<.4.r.;.2.7.' ^ x o n V.r.",
"+. .<.<.+.[ O.R h c < z d.%.%.O.r.4.2.X.+.<.+.j.[ f ! z $ n h.%.",
"%.R M [ m R V u E z < v $.| M V W _ V ~ | U U M h f M l < v +.M ",
"M p M B R p h M q 4 X & v b S A r R z n y i s u Q x v 4   4 Z A ",
"o - = = = 3 o o < * : > , < o , < * : : > 1 = - o o $ : = = = o ",
"n A % + . F v B g n I m i g g i q & . % Z z B G c a t x M c r d ",
"O.4.w $ J h.h.0.g.^.f.l.j.C.k.3.%.e + J P.a.S.f.B.l.p.m.h.m.4.=.",
">.n n 2 x m.:.m.l.Z.j.j.3.X.3.+.s p 3 c V.i.U.g.j.;.:.u.3.u.>.>.",
"O.V x o s U.S.g.;.2. .;.r.1.[ V U I - p x.G.d.3.3.r.4.o.+.;.O.>.",
"T c c $ I A.r.,.6.i.4.;.,.o.$.<.s T * ~ d.1.-.2.o.L.;.o.^ ,.+.+.",
"T c n O p A.,.$.A.,.+.+.T ~ ..T L z = S A.e.7.a.,.o.../ ] ] +.V ",
"I I b $ x t.$.O.$.O.T T ....R c d c o p &.%.' R O.~ B X.T ..T c ",
"c Y 0 < x 1.;.B L L h M I U U M P z 4 p } V M M E p E g Y M h I ",
"A v 1 X $ C D b c B M c x c c n w % X % A D b A z V m M p M p I ",
"O . 2 5 = $ = + X = - = = - = = < = 6 = # , # o , = = , , , 3 X ",
"M y z ! z @ ; @ B V B R M ! x V M n B G b @ * + b B x B c c M m ",
"r.r.;.X.%.q 7 v u.H.i.h.h.r.G.u.O.3.%.X.<.k 7 v G.h.G.h.u.h.a.p.",
"9.r.2. .O.! < G l.l.V.:.:.:.6.;.;.w.<.! O.x = M g.T.g.l.:.f.2.6.",
"X.;.+.` h y @ x E.s.5.R.:.f.:.c.+.6.;._ W s O m T.g.g.2.7.2.q.w.",
"+.<.<.[ h x 1 B f.7.u.;.h.<.h.<.O.o.O.` M g $ x j.f.4.>.f.<.q.9.",
"O.%. .V M B o B r.<.O.;.o.4.+.X.%.<.O.O.M c = b h.h.o.h.h.p.<.+.",
"..+._ B a B o Q L.q.y.3.,.t.,.;.O.;.! O.M x < B h.2.:.2.r.2.<.O.",
";.>.+.+.c B < n k.*.7.d.g.;.;.;.+.3.n +.m m = c R.6.h.6.:.;.;.>.",
"%.o.#.^ s s = T !.*.1.+.,.,.,.$.] 3.@.=.M M = B h.-.J.2.=.,.$.+.",
"o.) ..^ I T : n g.q.t.1.o.,.=.2.) *.{ ) R V = b H.:.3.;.,.o.,.,.",
"$...I Q i a o M O.+.O.O.~ ..~  .O.$.U B N u $ m a.1...O.O.E _ R ",
"T c I Z E c < S ;.O.! O.X.4.o.,.T T c B R b $ A ,.2.! o.$.$.1.+.",
"L g h M L 9 4 A +.O.b V B ~ c B I s i T N y 1 Z O.O.b V p c B B ",
"n G G A k &   @ y V V n x a u m n T n A a &   # M h z B Q c m p ",
"o o , # # , : 3 3 * : * 3 , o $ o o - o %   ; < # = 3 * 2 * 3 $ ",
"B n M g i m G k C @ + @ l B n c S M B p i m H a x b Z + @ @ l B "
};
